# This file uses centimeters as units for non-parametric coordinates.

mtllib door.mtl
g default
v -908.586304 -8.966216 -1047.548950
v -802.741577 -8.966216 -1047.548950
v -908.586304 164.108932 -1047.548950
v -802.741577 164.108932 -1047.548950
v -908.586304 164.108932 -1053.539185
v -802.741577 164.108932 -1053.539185
v -908.586304 -8.966216 -1053.539185
v -802.741577 -8.966216 -1053.539185
v -802.741577 147.001266 -1053.539185
v -908.586304 147.001266 -1053.539185
v -908.586304 147.001266 -1047.548950
v -802.741577 147.001266 -1047.548950
v -802.741577 127.372818 -1047.548950
v -908.586304 127.372818 -1047.548950
v -908.586304 127.372818 -1053.539185
v -802.741577 127.372818 -1053.539185
v -802.741577 30.823669 -1047.548950
v -908.586304 30.823669 -1047.548950
v -908.586304 30.823669 -1053.539185
v -802.741577 30.823669 -1053.539185
v -802.741577 2.451531 -1047.548950
v -908.586304 2.451531 -1047.548950
v -908.586304 2.451531 -1053.539185
v -802.741577 2.451531 -1053.539185
v -876.524780 147.001266 -1053.539185
v -876.524780 164.108932 -1053.539185
v -876.524780 164.108932 -1047.548950
v -876.524780 147.001266 -1047.548950
v -876.524780 127.372818 -1047.548950
v -876.524780 30.823669 -1047.548950
v -876.524780 2.451531 -1047.548950
v -876.524780 -8.966216 -1047.548950
v -876.524780 -8.966216 -1053.539185
v -876.524780 2.451531 -1053.539185
v -876.524780 30.823669 -1053.539185
v -876.524780 127.372818 -1053.539185
v -893.845520 147.001266 -1053.539185
v -893.845520 164.108932 -1053.539185
v -893.845520 164.108932 -1047.548950
v -893.845520 147.001266 -1047.548950
v -893.845520 127.372818 -1047.548950
v -893.845520 30.823669 -1047.548950
v -893.845520 2.451531 -1047.548950
v -893.845520 -8.966216 -1047.548950
v -893.845520 -8.966216 -1053.539185
v -893.845520 2.451531 -1053.539185
v -893.845520 30.823669 -1053.539185
v -893.845520 127.372818 -1053.539185
v -831.071777 147.001266 -1053.539185
v -831.071777 164.108932 -1053.539185
v -831.071777 164.108932 -1047.548950
v -831.071777 147.001266 -1047.548950
v -831.071777 127.372818 -1047.548950
v -831.071777 30.823669 -1047.548950
v -831.071777 2.451531 -1047.548950
v -831.071777 -8.966216 -1047.548950
v -831.071777 -8.966216 -1053.539185
v -831.071777 2.451531 -1053.539185
v -831.071777 30.823669 -1053.539185
v -831.071777 127.372818 -1053.539185
v -811.849854 147.001266 -1053.539185
v -811.849854 164.108932 -1053.539185
v -811.849854 164.108932 -1047.548950
v -811.849854 147.001266 -1047.548950
v -811.849854 127.372818 -1047.548950
v -811.849854 30.823669 -1047.548950
v -811.849854 2.451531 -1047.548950
v -811.849854 -8.966216 -1047.548950
v -811.849854 -8.966216 -1053.539185
v -811.849854 2.451531 -1053.539185
v -811.849854 30.823669 -1053.539185
v -811.849854 127.372818 -1053.539185
v -876.524780 30.823669 -1047.548950
v -893.845520 30.823669 -1047.548950
v -876.524780 127.372818 -1047.548950
v -893.845520 127.372818 -1047.548950
v -831.071777 30.823669 -1047.548950
v -831.071777 127.372818 -1047.548950
v -893.845520 127.372818 -1053.539185
v -876.524780 127.372818 -1053.539185
v -876.524780 30.823669 -1053.539185
v -893.845520 30.823669 -1053.539185
vt 0.362078 0.446451
vt 0.389760 0.449621
vt 0.344370 0.446451
vt 0.411762 0.449621
vt 0.942480 0.406688
vt 0.982030 0.406688
vt 0.936142 0.465405
vt 0.975691 0.465405
vt 0.975691 0.451231
vt 0.936142 0.451231
vt 0.411762 0.495050
vt 0.389760 0.495050
vt 0.344370 0.491881
vt 0.362078 0.491881
vt 0.432401 0.969921
vt 0.389760 0.035451
vt 0.362078 0.032282
vt 0.471950 0.969921
vt 0.344370 0.032282
vt 0.411762 0.035451
vt 0.411762 0.065771
vt 0.344370 0.062602
vt 0.362078 0.062602
vt 0.471950 0.924491
vt 0.432401 0.924491
vt 0.389760 0.065771
vt 0.389760 0.397497
vt 0.362078 0.394328
vt 0.344370 0.394328
vt 0.432401 0.540642
vt 0.471950 0.540642
vt 0.411762 0.397497
vt 0.389760 0.141113
vt 0.362078 0.137943
vt 0.344370 0.137943
vt 0.471950 0.510322
vt 0.432401 0.510322
vt 0.411762 0.141113
vt 0.432401 0.872368
vt 0.982030 0.424396
vt 0.942480 0.424396
vt 0.919598 0.927383
vt 0.147709 0.193796
vt 0.147709 0.129700
vt 0.959148 0.927383
vt 0.959148 0.972813
vt 0.580100 0.465405
vt 0.655310 0.465405
vt 0.471950 0.872368
vt 0.147709 0.421568
vt 0.147709 0.357472
vt 0.471950 0.615983
vt 0.586438 0.406688
vt 0.661649 0.406688
vt 0.919598 0.972813
vt 0.128907 0.193796
vt 0.128907 0.129700
vt 0.919598 0.513214
vt 0.959148 0.513214
vt 0.655310 0.451231
vt 0.580100 0.451231
vt 0.432401 0.615983
vt 0.128907 0.421568
vt 0.128907 0.357472
vt 0.076359 0.969921
vt 0.661649 0.424396
vt 0.586438 0.424396
vt 0.959148 0.543534
vt 0.197051 0.193796
vt 0.197051 0.129700
vt 0.919598 0.543534
vt 0.919598 0.875260
vt 0.516093 0.465405
vt 0.516093 0.451231
vt 0.151569 0.969921
vt 0.151569 0.924491
vt 0.076359 0.924491
vt 0.959148 0.875260
vt 0.522431 0.406688
vt 0.522431 0.424396
vt 0.919598 0.618875
vt 0.959148 0.618875
vt 0.563556 0.927383
vt 0.638767 0.927383
vt 0.638767 0.972813
vt 0.852676 0.465405
vt 0.852676 0.451231
vt 0.563556 0.972813
vt 0.563556 0.875260
vt 0.638767 0.875260
vt 0.128907 0.129700
vt 0.147709 0.129700
vt 0.147709 0.193796
vt 0.128907 0.193796
vt 0.128907 0.357472
vt 0.147709 0.357472
vt 0.147709 0.421568
vt 0.128907 0.421568
vt 0.197051 0.129700
vt 0.197051 0.193796
vt 0.563556 0.618875
vt 0.638767 0.618875
vt 0.638767 0.875260
vt 0.563556 0.875260
vt 0.076359 0.540642
vt 0.151569 0.540642
vt 0.151569 0.510322
vt 0.076359 0.510322
vt 0.076359 0.615983
vt 0.151569 0.615983
vt 0.076359 0.872368
vt 0.151569 0.872368
vt 0.151569 0.615983
vt 0.076359 0.615983
vt 0.076359 0.872368
vt 0.151569 0.872368
vt 0.012352 0.969921
vt 0.012352 0.924491
vt 0.012352 0.540642
vt 0.012352 0.510322
vt 0.012352 0.615983
vt 0.012352 0.872368
vt 0.348935 0.969921
vt 0.348935 0.924491
vt 0.348935 0.540642
vt 0.348935 0.510322
vt 0.348935 0.615983
vt 0.348935 0.872368
vt 0.563556 0.543534
vt 0.638767 0.543534
vt 0.638767 0.618875
vt 0.563556 0.618875
vt 0.563556 0.513214
vt 0.638767 0.513214
vt 0.499550 0.927383
vt 0.499550 0.972813
vt 0.499550 0.875260
vt 0.499550 0.618875
vt 0.499550 0.543534
vt 0.499550 0.513214
vt 0.836133 0.927383
vt 0.836133 0.972813
vt 0.836133 0.875260
vt 0.836133 0.618875
vt 0.836133 0.875260
vt 0.836133 0.543534
vt 0.836133 0.618875
vt 0.836133 0.513214
vt 0.859014 0.406688
vt 0.859014 0.424396
vn 0.000000 0.000000 1.000000
vn 0.000000 0.000000 1.000000
vn 0.000000 0.000000 1.000000
vn 0.000000 0.000000 1.000000
vn 0.000000 1.000000 0.000000
vn 0.000000 1.000000 0.000000
vn 0.000000 1.000000 0.000000
vn 0.000000 1.000000 0.000000
vn 0.000000 0.000000 -1.000000
vn 0.000000 0.000000 -1.000000
vn 0.000000 0.000000 -1.000000
vn 0.000000 0.000000 -1.000000
vn 0.000000 -1.000000 0.000000
vn 0.000000 -1.000000 0.000000
vn 0.000000 -1.000000 0.000000
vn 0.000000 -1.000000 0.000000
vn 1.000000 0.000000 0.000000
vn 1.000000 0.000000 0.000000
vn 1.000000 0.000000 0.000000
vn 1.000000 0.000000 0.000000
vn -1.000000 0.000000 0.000000
vn -1.000000 0.000000 0.000000
vn -1.000000 0.000000 0.000000
vn -1.000000 0.000000 0.000000
vn 0.000000 0.000000 -1.000000
vn 0.000000 0.000000 -1.000000
vn 0.000000 0.000000 -1.000000
vn 0.000000 0.000000 -1.000000
vn -1.000000 0.000000 0.000000
vn -1.000000 0.000000 0.000000
vn -1.000000 0.000000 0.000000
vn -1.000000 0.000000 0.000000
vn 0.000000 0.000000 1.000000
vn 0.000000 0.000000 1.000000
vn 0.000000 0.000000 1.000000
vn 0.000000 0.000000 1.000000
vn 1.000000 0.000000 0.000000
vn 1.000000 0.000000 0.000000
vn 1.000000 0.000000 0.000000
vn 1.000000 0.000000 0.000000
vn 0.000000 0.000000 1.000000
vn 0.000000 0.000000 1.000000
vn -1.000000 0.000000 0.000000
vn -1.000000 0.000000 0.000000
vn 0.000000 0.000000 -1.000000
vn 0.000000 0.000000 -1.000000
vn 1.000000 0.000000 0.000000
vn 1.000000 0.000000 0.000000
vn 0.000000 0.000000 1.000000
vn 0.000000 0.000000 1.000000
vn -1.000000 0.000000 0.000000
vn -1.000000 0.000000 0.000000
vn 0.000000 0.000000 -1.000000
vn 0.000000 0.000000 -1.000000
vn 1.000000 0.000000 0.000000
vn 1.000000 0.000000 0.000000
vn 0.000000 0.000000 -1.000000
vn 0.000000 0.000000 -1.000000
vn 0.000000 0.000000 -1.000000
vn 0.000000 0.000000 -1.000000
vn 0.000000 1.000000 0.000000
vn 0.000000 1.000000 0.000000
vn 0.000000 1.000000 0.000000
vn 0.000000 1.000000 0.000000
vn 0.000000 0.000000 1.000000
vn 0.000000 0.000000 1.000000
vn 0.000000 0.000000 1.000000
vn 0.000000 0.000000 1.000000
vn 0.000000 0.000000 1.000000
vn 0.000000 0.000000 1.000000
vn 0.000000 0.000000 1.000000
vn 0.000000 0.000000 1.000000
vn 0.000000 0.000000 1.000000
vn 0.000000 0.000000 1.000000
vn 0.000000 0.000000 1.000000
vn 0.000000 0.000000 1.000000
vn 0.000000 0.000000 1.000000
vn 0.000000 0.000000 1.000000
vn 0.000000 0.000000 1.000000
vn 0.000000 0.000000 1.000000
vn 0.000000 -1.000000 0.000000
vn 0.000000 -1.000000 0.000000
vn 0.000000 -1.000000 0.000000
vn 0.000000 -1.000000 0.000000
vn 0.000000 0.000000 -1.000000
vn 0.000000 0.000000 -1.000000
vn 0.000000 0.000000 -1.000000
vn 0.000000 0.000000 -1.000000
vn 0.000000 0.000000 -1.000000
vn 0.000000 0.000000 -1.000000
vn 0.000000 0.000000 -1.000000
vn 0.000000 0.000000 -1.000000
vn 0.000000 0.000000 -1.000000
vn 0.000000 0.000000 -1.000000
vn 0.000000 0.000000 -1.000000
vn 0.000000 0.000000 -1.000000
vn 0.000000 0.000000 -1.000000
vn 0.000000 0.000000 -1.000000
vn 0.000000 1.000000 0.000000
vn 0.000000 1.000000 0.000000
vn 0.000000 0.000000 1.000000
vn 0.000000 0.000000 1.000000
vn 0.000000 0.000000 1.000000
vn 0.000000 0.000000 1.000000
vn 0.000000 0.000000 1.000000
vn 0.000000 0.000000 1.000000
vn 0.000000 -1.000000 0.000000
vn 0.000000 -1.000000 0.000000
vn 0.000000 0.000000 -1.000000
vn 0.000000 0.000000 -1.000000
vn 0.000000 0.000000 -1.000000
vn 0.000000 0.000000 -1.000000
vn 0.000000 0.000000 -1.000000
vn 0.000000 0.000000 -1.000000
vn 0.000000 1.000000 0.000000
vn 0.000000 1.000000 0.000000
vn 0.000000 0.000000 1.000000
vn 0.000000 0.000000 1.000000
vn 0.000000 0.000000 1.000000
vn 0.000000 0.000000 1.000000
vn 0.000000 0.000000 1.000000
vn 0.000000 0.000000 1.000000
vn 0.000000 0.000000 1.000000
vn 0.000000 0.000000 1.000000
vn 0.000000 -1.000000 0.000000
vn 0.000000 -1.000000 0.000000
vn 0.000000 0.000000 -1.000000
vn 0.000000 0.000000 -1.000000
vn 0.000000 0.000000 -1.000000
vn 0.000000 0.000000 -1.000000
vn 0.000000 0.000000 0.000000
vn 0.000000 0.000000 0.000000
vn 0.000000 0.000000 0.000000
vn 0.000000 0.000000 0.000000
vn 0.000000 0.000000 0.000000
vn 0.000000 0.000000 0.000000
vn 0.000000 0.000000 0.000000
vn 0.000000 0.000000 0.000000
vn 0.000000 0.000000 0.000000
vn 0.000000 0.000000 0.000000
vn 0.000000 0.000000 0.000000
vn 0.000000 0.000000 0.000000
vn 0.000000 0.000000 0.000000
vn 0.000000 0.000000 0.000000
vn 0.000000 0.000000 0.000000
vn 0.000000 0.000000 0.000000
vn 0.000000 0.000000 0.000000
vn 0.000000 0.000000 0.000000
vn 0.000000 0.000000 0.000000
vn 0.000000 0.000000 0.000000
vn 0.000000 0.000000 0.000000
vn 0.000000 0.000000 0.000000
vn 0.000000 0.000000 0.000000
vn 0.000000 0.000000 0.000000
vn 0.000000 0.000000 0.000000
vn 0.000000 0.000000 0.000000
vn 0.000000 0.000000 0.000000
vn 0.000000 0.000000 0.000000
vn 0.000000 0.000000 0.000000
vn 0.000000 0.000000 0.000000
vn 0.000000 0.000000 0.000000
vn 0.000000 0.000000 0.000000
vn 0.000000 0.000000 0.000000
vn 0.000000 0.000000 0.000000
vn 0.000000 0.000000 0.000000
vn 0.000000 0.000000 0.000000
vn 0.000000 0.000000 0.000000
vn 0.000000 0.000000 0.000000
vn 0.000000 0.000000 0.000000
vn 0.000000 0.000000 0.000000
s 1
g pCube33
usemtl initialShadingGroup
f 64/42/1 12/45/2 63/55/3
f 63/55/3 12/45/2 4/46/4
s 2
f 63/5/5 4/6/6 62/41/7
f 62/41/7 4/6/6 6/40/8
s 3
f 62/15/9 6/18/10 61/25/11
f 61/25/11 6/18/10 9/24/12
s 4
f 69/7/13 8/8/14 68/10/15
f 68/10/15 8/8/14 2/9/16
s 5
f 12/2/17 9/4/18 4/12/19
f 4/12/19 9/4/18 6/11/20
s 6
f 10/1/21 11/3/22 5/14/23
f 5/14/23 11/3/22 3/13/24
s 3
f 70/30/25 24/31/26 69/37/27
f 69/37/27 24/31/26 8/36/28
s 6
f 7/17/29 1/19/30 23/23/31
f 23/23/31 1/19/30 22/22/32
s 1
f 68/58/33 2/59/34 67/71/35
f 67/71/35 2/59/34 21/68/36
s 5
f 2/16/37 8/20/38 21/26/39
f 21/26/39 8/20/38 24/21/40
s 1
f 65/72/41 13/78/42 64/42/1
f 64/42/1 13/78/42 12/45/2
s 6
f 15/28/43 14/29/44 10/1/21
f 10/1/21 14/29/44 11/3/22
s 3
f 72/39/45 61/25/11 16/49/46
f 16/49/46 61/25/11 9/24/12
s 5
f 13/27/47 16/32/48 12/2/17
f 12/2/17 16/32/48 9/4/18
s 1
f 66/81/49 17/82/50 65/72/41
f 65/72/41 17/82/50 13/78/42
s 6
f 19/34/51 18/35/52 15/28/43
f 15/28/43 18/35/52 14/29/44
s 3
f 72/39/45 16/49/46 71/62/53
f 71/62/53 16/49/46 20/52/54
s 5
f 17/33/55 20/38/56 13/27/47
f 13/27/47 20/38/56 16/32/48
s 1
f 67/71/35 21/68/36 66/81/49
f 66/81/49 21/68/36 17/82/50
s 6
f 23/23/31 22/22/32 19/34/51
f 19/34/51 22/22/32 18/35/52
s 3
f 71/62/53 20/52/54 70/30/25
f 70/30/25 20/52/54 24/31/26
s 5
f 21/26/39 24/21/40 17/33/55
f 17/33/55 24/21/40 20/38/56
s 3
f 38/65/57 26/75/58 37/77/59
f 37/77/59 26/75/58 25/76/60
s 2
f 39/53/61 27/54/62 38/67/63
f 38/67/63 27/54/62 26/66/64
s 1
f 40/83/65 28/84/66 39/88/67
f 39/88/67 28/84/66 27/85/68
f 41/89/69 29/90/70 40/83/65
f 40/83/65 29/90/70 28/84/66
s 21
f 74/101/71 73/102/72 76/104/73
f 76/104/73 73/102/72 75/103/74
s 1
f 43/129/75 31/130/76 42/132/77
f 42/132/77 31/130/76 30/131/78
f 44/133/79 32/134/80 43/129/75
f 43/129/75 32/134/80 31/130/76
s 4
f 45/47/81 33/48/82 44/61/83
f 44/61/83 33/48/82 32/60/84
s 3
f 46/105/85 34/106/86 45/108/87
f 45/108/87 34/106/86 33/107/88
f 47/109/89 35/110/90 46/105/85
f 46/105/85 35/110/90 34/106/86
s 25
f 79/111/91 80/112/92 82/114/93
f 82/114/93 80/112/92 81/113/94
s 3
f 48/115/95 37/77/59 36/116/96
f 36/116/96 37/77/59 25/76/60
f 5/117/97 38/65/57 10/118/98
f 10/118/98 38/65/57 37/77/59
s 2
f 3/79/99 39/53/61 5/80/100
f 5/80/100 39/53/61 38/67/63
s 1
f 11/135/101 40/83/65 3/136/102
f 3/136/102 40/83/65 39/88/67
f 14/137/103 41/89/69 11/135/101
f 11/135/101 41/89/69 40/83/65
f 18/138/104 42/132/77 14/137/103
f 14/137/103 42/132/77 41/89/69
f 22/139/105 43/129/75 18/138/104
f 18/138/104 43/129/75 42/132/77
f 1/140/106 44/133/79 22/139/105
f 22/139/105 44/133/79 43/129/75
s 4
f 7/73/107 45/47/81 1/74/108
f 1/74/108 45/47/81 44/61/83
s 3
f 23/119/109 46/105/85 7/120/110
f 7/120/110 46/105/85 45/108/87
f 19/121/111 47/109/89 23/119/109
f 23/119/109 47/109/89 46/105/85
f 15/122/112 48/115/95 19/121/111
f 19/121/111 48/115/95 47/109/89
f 10/118/98 37/77/59 15/122/112
f 15/122/112 37/77/59 48/115/95
f 26/75/58 50/123/113 25/76/60
f 25/76/60 50/123/113 49/124/114
s 2
f 27/54/62 51/149/115 26/66/64
f 26/66/64 51/149/115 50/150/116
s 1
f 28/84/66 52/141/117 27/85/68
f 27/85/68 52/141/117 51/142/118
f 29/90/70 53/143/119 28/84/66
f 28/84/66 53/143/119 52/141/117
s 21
f 73/102/72 77/144/120 75/103/74
f 75/103/74 77/144/120 78/145/121
s 1
f 31/130/76 55/146/122 30/131/78
f 30/131/78 55/146/122 54/147/123
f 32/134/80 56/148/124 31/130/76
f 31/130/76 56/148/124 55/146/122
s 4
f 33/48/82 57/86/125 32/60/84
f 32/60/84 57/86/125 56/87/126
s 3
f 34/106/86 58/125/127 33/107/88
f 33/107/88 58/125/127 57/126/128
f 35/110/90 59/127/129 34/106/86
f 34/106/86 59/127/129 58/125/127
f 36/116/96 60/128/130 35/110/90
f 35/110/90 60/128/130 59/127/129
f 36/116/96 25/76/60 60/128/130
f 60/128/130 25/76/60 49/124/114
f 50/123/113 62/15/9 49/124/114
f 49/124/114 62/15/9 61/25/11
s 2
f 51/149/115 63/5/5 50/150/116
f 50/150/116 63/5/5 62/41/7
s 1
f 52/141/117 64/42/1 51/142/118
f 51/142/118 64/42/1 63/55/3
f 53/143/119 65/72/41 52/141/117
f 52/141/117 65/72/41 64/42/1
f 54/147/123 66/81/49 53/143/119
f 53/143/119 66/81/49 65/72/41
f 55/146/122 67/71/35 54/147/123
f 54/147/123 67/71/35 66/81/49
f 56/148/124 68/58/33 55/146/122
f 55/146/122 68/58/33 67/71/35
s 4
f 57/86/125 69/7/13 56/87/126
f 56/87/126 69/7/13 68/10/15
s 3
f 58/125/127 70/30/25 57/126/128
f 57/126/128 70/30/25 69/37/27
f 59/127/129 71/62/53 58/125/127
f 58/125/127 71/62/53 70/30/25
f 60/128/130 72/39/45 59/127/129
f 59/127/129 72/39/45 71/62/53
f 60/128/130 49/124/114 72/39/45
f 72/39/45 49/124/114 61/25/11
s 29
f 74/91/131 42/57/132 73/92/133
f 42/57/132 30/44/134 73/92/133
s 30
f 75/93/135 29/43/136 76/94/137
f 29/43/136 41/56/138 76/94/137
s 31
f 76/94/139 41/56/140 74/91/141
f 41/56/140 42/57/142 74/91/141
s 32
f 73/95/143 30/64/144 77/96/145
f 30/64/144 54/51/146 77/96/145
s 33
f 77/96/147 54/51/148 78/97/149
f 54/51/148 53/50/150 78/97/149
s 34
f 78/97/151 53/50/152 75/98/153
f 53/50/152 29/63/154 75/98/153
s 35
f 79/98/155 48/63/156 80/95/157
f 48/63/156 36/64/158 80/95/157
s 36
f 80/92/159 36/44/160 81/99/161
f 36/44/160 35/70/162 81/99/161
s 37
f 81/99/163 35/70/164 82/100/165
f 35/70/164 47/69/166 82/100/165
s 38
f 82/100/167 47/69/168 79/93/169
f 47/69/168 48/43/170 79/93/169
