# This file uses centimeters as units for non-parametric coordinates.

mtllib cornerwalls.mtl
g default
v -321.747559 -2.752319 -111.177567
v -228.633743 -2.752319 -111.177567
v -321.747559 179.247681 -111.177567
v -228.633743 179.247681 -111.177567
v -321.747559 179.247681 -131.553497
v -228.633743 179.247681 -131.553497
v -321.747559 -2.752319 -137.439270
v -228.633743 -2.752319 -137.439270
v -228.633743 45.741859 -126.765968
v -321.747559 45.741859 -126.765968
v -321.747559 45.741859 -111.177567
v -228.633743 45.741859 -111.177567
v -228.633743 34.343082 -137.439270
v -321.747559 34.343082 -137.439270
v -321.747559 34.343082 -111.177567
v -228.633743 34.343082 -111.177567
v -228.633743 172.667419 -131.553497
v -321.747559 172.667419 -131.553497
v -321.747559 172.667419 -111.177567
v -228.633743 172.667419 -111.177567
v -228.633743 160.864975 -126.765968
v -321.747559 160.864975 -126.765968
v -321.747559 160.864975 -111.177567
v -228.633743 160.864975 -111.177567
v -219.989975 -2.752319 -110.676987
v -219.989975 179.247681 -110.676987
v -220.280716 179.247681 -132.976776
v -219.922729 -2.752319 -140.862335
v -214.034058 45.741859 -127.802589
v -219.989975 45.741859 -110.676987
v -219.922729 34.343082 -140.862335
v -219.989975 34.343082 -110.676987
v -220.280716 172.667419 -132.976776
v -219.989975 172.667419 -110.676987
v -217.682281 160.864975 -127.099632
v -219.989975 160.864975 -110.676987
v -168.576736 -2.752319 -159.780243
v -168.576736 179.247681 -159.780243
v -189.712372 179.247681 -159.836014
v -198.451279 -2.752319 -161.666672
v -185.343689 45.741859 -155.885269
v -168.576736 45.741859 -159.780243
v -198.451279 34.343082 -161.666672
v -168.576736 34.343082 -159.780243
v -189.712372 172.667419 -159.836014
v -168.576736 172.667419 -159.780243
v -184.114777 160.864975 -156.680115
v -168.576736 160.864975 -159.780243
v -170.136993 -2.752319 -110.676987
v -170.136993 34.343082 -110.676987
v -170.136993 45.741859 -110.676987
v -170.136993 160.864975 -110.676987
v -170.136993 172.667419 -110.676987
v -170.136993 179.247681 -110.676987
v -205.585144 179.247681 -145.889206
v -205.585144 172.667419 -145.889206
v -201.544876 160.864960 -141.320282
v -200.241318 45.741859 -141.303177
v -209.600433 34.343079 -150.863907
v -209.600433 -2.752319 -150.863907
v -169.009415 -2.752319 -163.930573
v -169.009415 -2.752319 -263.930573
v -169.009415 179.247681 -163.930573
v -169.009415 179.247681 -263.930573
v -189.385345 179.247681 -163.930573
v -189.385345 179.247681 -263.930573
v -195.271118 -2.752319 -163.930573
v -195.271118 -2.752319 -263.930573
v -184.597824 45.741859 -263.930573
v -184.597824 45.741859 -163.930573
v -169.009415 45.741859 -163.930573
v -169.009415 45.741859 -263.930573
v -195.271118 34.343082 -263.930573
v -195.271118 34.343082 -163.930573
v -169.009415 34.343082 -163.930573
v -169.009415 34.343082 -263.930573
v -189.385345 172.667419 -263.930573
v -189.385345 172.667419 -163.930573
v -169.009415 172.667419 -163.930573
v -169.009415 172.667419 -263.930573
v -184.597824 160.864975 -263.930573
v -184.597824 160.864975 -163.930573
v -169.009415 160.864975 -163.930573
v -169.009415 160.864975 -263.930573
vt 0.464857 0.971924
vt 0.635895 0.971924
vt 0.635895 0.986187
vt 0.464857 0.986187
vt 0.521833 0.046507
vt 0.716508 0.046507
vt 0.166981 0.560202
vt 0.380396 0.560202
vt 0.380396 0.545939
vt 0.166981 0.545939
vt 0.464857 0.672101
vt 0.635895 0.672101
vt 0.166981 0.270824
vt 0.380396 0.270824
vt 0.635895 0.696809
vt 0.464857 0.696809
vt 0.380396 0.246116
vt 0.166981 0.246116
vt 0.464857 0.591696
vt 0.635895 0.591696
vt 0.380396 0.165711
vt 0.166981 0.165711
vt 0.464857 0.946342
vt 0.635895 0.946342
vt 0.380396 0.520357
vt 0.166981 0.520357
vt 0.487104 0.543505
vt 0.487104 0.557768
vt 0.400361 0.165711
vt 0.518778 0.557768
vt 0.400361 0.246116
vt 0.518778 0.543505
vt 0.424020 0.246116
vt 0.476728 0.517923
vt 0.716508 0.098957
vt 0.521833 0.098957
vt 0.651773 0.672101
vt 0.651773 0.591696
vt 0.743346 0.591696
vt 0.743346 0.672101
vt 0.651773 0.946342
vt 0.651773 0.696809
vt 0.743346 0.696809
vt 0.743346 0.946342
vt 0.651773 0.986187
vt 0.651773 0.971924
vt 0.743346 0.971924
vt 0.743346 0.986187
vt 0.252406 0.696550
vt 0.252406 0.946083
vt 0.163176 0.946083
vt 0.163176 0.696550
vt 0.252406 0.971665
vt 0.163176 0.971665
vt 0.252406 0.985928
vt 0.511610 0.517923
vt 0.476689 0.268389
vt 0.509805 0.268389
vt 0.498402 0.243682
vt 0.522935 0.243682
vt 0.163176 0.985928
vt 0.252406 0.671843
vt 0.163176 0.671843
vt 0.252406 0.591437
vt 0.163176 0.591437
vt 0.259948 0.971665
vt 0.498402 0.163277
vt 0.522935 0.163277
vt 0.528076 0.557768
vt 0.755179 0.557768
vt 0.755179 0.543505
vt 0.528076 0.543505
vt 0.441666 0.971665
vt 0.441666 0.985928
vt 0.259948 0.985928
vt 0.259948 0.671843
vt 0.528076 0.268389
vt 0.755179 0.268389
vt 0.441666 0.671843
vt 0.441666 0.696550
vt 0.755179 0.243682
vt 0.528076 0.243682
vt 0.259948 0.696550
vt 0.259948 0.591437
vt 0.424020 0.165711
vt 0.413858 0.270824
vt 0.445471 0.270824
vt 0.405496 0.520357
vt 0.442483 0.520357
vt 0.399541 0.545939
vt 0.433223 0.545939
vt 0.399541 0.560202
vt 0.433223 0.560202
vt 0.755179 0.163277
vt 0.528076 0.163277
vt 0.755179 0.517923
vt 0.528076 0.517923
vt 0.441666 0.591437
vt 0.764696 0.135859
vt 0.733972 0.102621
vt 0.734579 0.045219
vt 0.838808 0.045219
vt 0.842070 0.171616
vt 0.797882 0.171759
vt 0.841166 0.182299
vt 0.841166 0.439710
vt 0.798565 0.439710
vt 0.798565 0.182299
vt 0.259948 0.946083
vt 0.441666 0.946083
vn 0.000000 0.000000 1.000000
vn 0.000000 0.000000 1.000000
vn 0.000000 0.000000 1.000000
vn 0.000000 0.000000 1.000000
vn 0.000000 1.000000 0.000000
vn 0.000000 1.000000 0.000000
vn 0.000000 1.000000 0.000000
vn 0.000000 1.000000 0.000000
vn 0.000000 0.000000 -1.000000
vn 0.000000 0.000000 -1.000000
vn 0.000000 -0.252030 -0.967720
vn 0.000000 -0.252030 -0.967720
vn 0.000000 0.084061 -0.996461
vn 0.000000 0.084061 -0.996461
vn 0.000000 0.214950 -0.976625
vn 0.000000 0.214950 -0.976625
vn 0.000000 0.000000 1.000000
vn 0.000000 0.000000 1.000000
vn 0.000000 0.000000 1.000000
vn 0.000000 0.000000 1.000000
vn 0.000000 0.000000 -1.000000
vn 0.000000 0.000000 -1.000000
vn 0.000000 0.000000 1.000000
vn 0.000000 0.000000 1.000000
vn 0.000000 -0.037692 -0.999289
vn 0.000000 -0.037692 -0.999289
vn 0.000000 0.000000 1.000000
vn 0.000000 0.000000 1.000000
vn -0.695861 0.000000 -0.718176
vn -0.695862 0.000000 -0.718176
vn -0.695862 0.000000 -0.718175
vn -0.695862 0.000000 -0.718175
vn -0.451818 0.762191 -0.463601
vn -0.451818 0.762191 -0.463601
vn -0.452703 0.761113 -0.464508
vn -0.452701 0.761115 -0.464506
vn -0.679463 -0.012428 -0.733604
vn -0.679463 -0.012428 -0.733604
vn -0.679497 -0.007458 -0.733641
vn -0.679497 -0.007408 -0.733641
vn -0.586597 -0.459965 -0.666586
vn -0.586597 -0.459965 -0.666586
vn -0.586920 -0.459017 -0.666954
vn -0.586921 -0.459016 -0.666954
vn -0.660061 0.000000 -0.751212
vn -0.660061 0.000000 -0.751212
vn -0.660061 0.000000 -0.751212
vn -0.660061 0.000000 -0.751212
vn 0.000000 0.000000 1.000000
vn 0.000000 0.000000 1.000000
vn 0.000000 0.000000 1.000000
vn 0.000000 0.000000 1.000000
vn 0.000000 0.000000 1.000000
vn 0.000000 0.000000 1.000000
vn 0.000000 0.000000 1.000000
vn 0.000000 0.000000 1.000000
vn 0.000000 0.000000 1.000000
vn 0.000000 0.000000 1.000000
vn 0.000000 0.000000 1.000000
vn 0.000000 0.000000 1.000000
vn 0.000000 0.000000 1.000000
vn 0.000000 0.000000 1.000000
vn 0.000000 0.000000 1.000000
vn 0.000000 0.000000 1.000000
vn 0.000000 0.000000 1.000000
vn 0.000000 0.000000 1.000000
vn 0.000000 0.000000 1.000000
vn 0.000000 0.000000 1.000000
vn 0.999496 0.000000 0.031759
vn 0.999496 0.000000 0.031759
vn 0.999496 0.000000 0.031759
vn 0.999496 0.000000 0.031759
vn 0.999496 0.000000 0.031759
vn 0.999496 0.000000 0.031759
vn 0.999496 0.000000 0.031759
vn 0.999496 0.000000 0.031759
vn 0.999496 0.000000 0.031759
vn 0.999496 0.000000 0.031759
vn 0.999496 0.000000 0.031759
vn 0.999496 0.000000 0.031759
vn 0.999496 0.000000 0.031759
vn 0.999496 0.000000 0.031759
vn 0.999496 0.000000 0.031759
vn 0.999496 0.000000 0.031759
vn 0.999496 0.000000 0.031759
vn 0.999496 0.000000 0.031759
vn 0.999496 0.000000 0.031759
vn 0.999496 0.000000 0.031759
vn -0.660061 0.000000 -0.751212
vn -0.660061 0.000000 -0.751212
vn -0.587221 -0.458137 -0.667295
vn -0.587221 -0.458137 -0.667295
vn -0.679513 -0.002807 -0.733658
vn -0.679513 -0.002807 -0.733658
vn -0.453524 0.760109 -0.465350
vn -0.453524 0.760109 -0.465350
vn -0.695863 0.000000 -0.718175
vn -0.695863 0.000000 -0.718175
vn 0.000000 1.000000 0.000000
vn 0.000000 1.000000 0.000000
vn 0.000000 1.000000 0.000000
vn 0.000000 1.000000 0.000000
vn 0.000000 1.000000 0.000000
vn 0.000000 1.000000 0.000000
vn 0.000000 1.000000 0.000000
vn 0.000000 1.000000 0.000000
vn 0.000000 1.000000 0.000000
vn 0.000000 1.000000 0.000000
vn 0.000000 1.000000 0.000000
vn 0.000000 1.000000 0.000000
vn -0.057815 0.000000 0.998327
vn -0.057815 0.000000 0.998327
vn -0.057815 0.000000 0.998327
vn -0.057815 0.000000 0.998327
vn -0.057816 0.000000 0.998327
vn -0.057816 0.000000 0.998327
vn -0.057816 0.000000 0.998327
vn -0.057816 0.000000 0.998327
vn -0.057815 0.000000 0.998327
vn -0.057815 0.000000 0.998327
vn -0.057815 0.000000 0.998327
vn -0.057815 0.000000 0.998327
vn -0.057816 0.000000 0.998327
vn -0.057816 0.000000 0.998327
vn -0.057816 0.000000 0.998327
vn -0.057816 0.000000 0.998327
vn -0.057814 0.000000 0.998327
vn -0.057814 0.000000 0.998327
vn -0.057814 0.000000 0.998327
vn -0.057814 0.000000 0.998327
vn -0.365734 0.000000 -0.930719
vn -0.365734 0.000000 -0.930719
vn -0.365734 0.000000 -0.930719
vn -0.365734 0.000000 -0.930719
vn -0.128238 0.730928 -0.670298
vn -0.128238 0.730928 -0.670298
vn -0.128238 0.730928 -0.670298
vn -0.128238 0.730928 -0.670298
vn -0.053552 0.002200 -0.998563
vn -0.053552 0.002200 -0.998563
vn -0.053552 0.002200 -0.998563
vn -0.053552 0.002200 -0.998563
vn -0.082346 -0.417843 -0.904780
vn -0.082346 -0.417843 -0.904780
vn -0.082346 -0.417843 -0.904780
vn -0.082346 -0.417843 -0.904780
vn -0.167970 0.000000 -0.985792
vn -0.167970 0.000000 -0.985792
vn -0.167970 0.000000 -0.985792
vn -0.167970 0.000000 -0.985792
vn 1.000000 0.000000 0.000000
vn 1.000000 0.000000 0.000000
vn 1.000000 0.000000 0.000000
vn 1.000000 0.000000 0.000000
vn 0.000000 1.000000 0.000000
vn 0.000000 1.000000 0.000000
vn 0.000000 1.000000 0.000000
vn 0.000000 1.000000 0.000000
vn -1.000000 0.000000 0.000000
vn -1.000000 0.000000 0.000000
vn -0.967720 -0.252029 0.000000
vn -0.967720 -0.252029 0.000000
vn -0.996461 0.084061 0.000000
vn -0.996461 0.084061 0.000000
vn -0.976625 0.214949 0.000000
vn -0.976625 0.214949 0.000000
vn 1.000000 0.000000 0.000000
vn 1.000000 0.000000 0.000000
vn 1.000000 0.000000 0.000000
vn 1.000000 0.000000 0.000000
vn -1.000000 0.000000 0.000000
vn -1.000000 0.000000 0.000000
vn 1.000000 0.000000 0.000000
vn 1.000000 0.000000 0.000000
vn -0.999289 -0.037692 0.000000
vn -0.999289 -0.037692 0.000000
vn 1.000000 0.000000 0.000000
vn 1.000000 0.000000 0.000000
vn 0.000000 1.000000 0.000001
vn 0.000000 1.000000 0.000001
vn 0.000000 1.000000 0.000001
vn 0.000000 1.000000 0.000001
vn 0.994610 0.000000 -0.103690
vn 0.994610 0.000000 -0.103690
vn 0.994610 0.000000 -0.103690
vn 0.994610 0.000000 -0.103690
vn 0.994610 0.000000 -0.103690
vn 0.994610 0.000000 -0.103690
vn 0.994610 0.000000 -0.103690
vn 0.994610 0.000000 -0.103690
vn 0.994610 0.000000 -0.103690
vn 0.994610 0.000000 -0.103690
vn 0.994610 0.000000 -0.103690
vn 0.994610 0.000000 -0.103690
vn 0.994610 0.000000 -0.103690
vn 0.994610 0.000000 -0.103690
vn 0.994610 0.000000 -0.103690
vn 0.994610 0.000000 -0.103690
vn 0.994610 0.000000 -0.103690
vn 0.994610 0.000000 -0.103690
vn 0.994610 0.000000 -0.103690
vn 0.994610 0.000000 -0.103690
vn -0.996826 0.000000 -0.079615
vn -0.996826 0.000000 -0.079615
vn -0.996826 0.000000 -0.079615
vn -0.996826 0.000000 -0.079615
vn -0.915877 -0.401262 0.012595
vn -0.915877 -0.401262 0.012595
vn -0.915877 -0.401262 0.012595
vn -0.915877 -0.401262 0.012595
vn -0.999839 0.005277 -0.017180
vn -0.999839 0.005277 -0.017180
vn -0.999839 0.005277 -0.017180
vn -0.999839 0.005277 -0.017180
vn -0.639664 0.729032 -0.243601
vn -0.639664 0.729032 -0.243601
vn -0.639664 0.729032 -0.243601
vn -0.639664 0.729032 -0.243602
vn -0.579940 0.000000 -0.814659
vn -0.579940 0.000000 -0.814659
vn -0.579940 0.000000 -0.814659
vn -0.579940 0.000000 -0.814659
s 1
g pCube22
usemtl initialShadingGroup
f 19/1/1 20/2/2 4/3/3 3/4/4
s off
f 3/5/5 4/6/6 6/35/7 5/36/8
s 2
f 5/7/9 6/8/10 17/9/11 18/10/12
f 10/13/13 9/14/14 13/17/15 14/18/16
s 1
f 15/11/17 16/12/18 12/15/19 11/16/20
s 2
f 14/18/16 13/17/15 8/21/21 7/22/22
s 1
f 1/19/23 2/20/24 16/12/18 15/11/17
s 2
f 18/10/12 17/9/11 21/25/25 22/26/26
s 1
f 23/23/27 24/24/28 20/2/2 19/1/1
s 2
f 22/26/26 21/25/25 9/14/14 10/13/13
s 1
f 11/16/20 12/15/19 24/24/28 23/23/27
s 5
f 28/29/29 31/31/30 59/33/31 60/85/32
s 6
f 31/31/33 29/86/34 58/87/35 59/33/36
s 7
f 29/86/37 35/88/38 57/89/39 58/87/40
s 8
f 35/88/41 33/90/42 56/91/43 57/89/44
s 9
f 33/90/45 27/92/46 55/93/47 56/91/48
s off
f 32/37/49 25/38/50 49/39/51 50/40/52
f 36/41/53 30/42/54 51/43/55 52/44/56
f 30/42/57 32/37/58 50/40/59 51/43/60
f 26/45/61 34/46/62 53/47/63 54/48/64
f 34/46/65 36/41/66 52/44/67 53/47/68
f 42/49/69 48/50/70 52/51/71 51/52/72
f 48/50/73 46/53/74 53/54/75 52/51/76
f 46/53/77 38/55/78 54/61/79 53/54/80
f 44/62/81 42/49/82 51/52/83 50/63/84
f 37/64/85 44/62/86 50/63/87 49/65/88
s 9
f 56/27/48 55/28/47 39/30/89 45/32/90
s 8
f 57/34/44 56/27/43 45/32/91 47/56/92
s 7
f 58/57/40 57/34/39 47/56/93 41/58/94
s 6
f 59/59/36 58/57/35 41/58/95 43/60/96
s 5
f 60/67/32 59/59/31 43/60/97 40/68/98
s off
f 55/99/99 27/100/100 26/101/101 54/102/102
f 54/102/103 38/103/104 39/104/105 55/99/106
f 6/35/107 4/6/108 26/101/109 27/100/110
f 4/3/111 20/2/112 34/46/113 26/45/114
f 20/2/115 24/24/116 36/41/117 34/46/118
f 24/24/119 12/15/120 30/42/121 36/41/122
f 12/15/123 16/12/124 32/37/125 30/42/126
f 16/12/127 2/20/128 25/38/129 32/37/130
f 8/21/131 13/17/132 31/31/133 28/29/134
f 13/17/135 9/14/136 29/86/137 31/31/138
f 9/14/139 21/25/140 35/88/141 29/86/142
f 21/25/143 17/9/144 33/90/145 35/88/146
f 17/9/147 6/8/148 27/92/149 33/90/150
s 10
f 79/66/151 80/73/152 64/74/153 63/75/154
s off
f 63/105/155 64/106/156 66/107/157 65/108/158
s 11
f 65/69/159 66/70/160 77/71/161 78/72/162
f 70/77/163 69/78/164 73/81/165 74/82/166
s 10
f 75/76/167 76/79/168 72/80/169 71/83/170
s 11
f 74/82/166 73/81/165 68/94/171 67/95/172
s 10
f 61/84/173 62/98/174 76/79/168 75/76/167
s 11
f 78/72/162 77/71/161 81/96/175 82/97/176
s 10
f 83/109/177 84/110/178 80/73/152 79/66/151
s 11
f 82/97/176 81/96/175 69/78/164 70/77/163
s 10
f 71/83/170 72/80/169 84/110/178 83/109/177
s off
f 39/104/179 38/103/180 63/105/181 65/108/182
f 38/55/183 46/53/184 79/66/185 63/75/186
f 46/53/187 48/50/188 83/109/189 79/66/190
f 48/50/191 42/49/192 71/83/193 83/109/194
f 42/49/195 44/62/196 75/76/197 71/83/198
f 44/62/199 37/64/200 61/84/201 75/76/202
f 45/32/203 39/30/204 65/69/205 78/72/206
f 47/56/207 45/32/208 78/72/209 82/97/210
f 41/58/211 47/56/212 82/97/213 70/77/214
f 43/60/215 41/58/216 70/77/217 74/82/218
f 40/68/219 43/60/220 74/82/221 67/95/222
